<?xml version="1.0" standalone="no"?>
<!DOCTYPE svg PUBLIC "-//W3C//DTD SVG 20010904//EN"
 "http://www.w3.org/TR/2001/REC-SVG-20010904/DTD/svg10.dtd">
<svg version="1.0" xmlns="http://www.w3.org/2000/svg"
 width="1080.000000pt" height="1350.000000pt" viewBox="0 0 1080.000000 1350.000000"
 preserveAspectRatio="xMidYMid meet">

<g transform="translate(0.000000,1350.000000) scale(0.100000,-0.100000)"
fill="#000000" stroke="none">
<path d="M5535 12563 c-54 -16 -570 -182 -910 -293 -463 -150 -600 -195 -830
-270 -132 -43 -325 -106 -430 -140 -464 -151 -693 -226 -878 -286 l-197 -65 3
-2162 3 -2162 27 -122 c57 -257 152 -487 310 -753 169 -283 350 -506 686 -840
395 -395 733 -671 1236 -1012 387 -263 1009 -628 1068 -628 43 0 497 258 828
471 607 389 1201 866 1576 1265 562 598 828 1083 909 1659 15 110 17 299 17
2200 -1 1748 -3 2081 -14 2087 -8 4 -117 41 -244 82 -126 41 -340 111 -475
154 -135 44 -330 108 -435 142 -104 34 -390 127 -635 207 -1249 406 -1492 483
-1527 482 -21 0 -60 -7 -88 -16z m455 -1495 l0 -111 -937 6 c-516 4 -1088 7
-1270 7 l-333 0 0 105 0 105 1270 0 1270 0 0 -112z m2331 91 c25 -25 23 -37
-16 -164 -26 -80 -29 -105 -29 -230 -1 -134 1 -145 33 -242 40 -121 36 -145
-26 -162 -48 -14 -1319 -15 -1389 -2 -148 28 -249 102 -311 229 -37 73 -38 80
-38 182 0 94 3 111 28 164 51 110 119 174 234 222 l58 24 718 0 c715 0 717 0
738 -21z m-2581 -479 l0 -110 -1020 0 -1020 0 0 105 0 104 88 4 c48 1 507 4
1020 5 l932 2 0 -110z m358 -182 l2 -178 -105 0 -105 0 0 180 0 181 103 -3
102 -3 3 -177z m-627 -287 c22 -18 24 -26 22 -109 -6 -224 -62 -343 -227 -480
-22 -18 -26 -29 -22 -48 4 -14 14 -71 22 -127 45 -292 -49 -563 -268 -773
-110 -106 -141 -126 -585 -383 -702 -406 -1188 -689 -1248 -728 -71 -45 -126
-115 -152 -192 -28 -87 -25 -296 6 -373 12 -32 25 -58 29 -58 4 0 20 24 36 53
41 73 166 192 267 253 46 28 203 120 349 204 263 152 787 456 1118 648 253
147 348 220 483 369 149 164 264 388 324 627 13 54 26 100 29 103 27 27 83
-122 117 -306 24 -132 25 -349 3 -482 -31 -186 -117 -397 -227 -558 -72 -106
-263 -295 -367 -363 -113 -74 -529 -319 -1059 -624 -453 -260 -518 -305 -559
-387 -35 -71 -55 -180 -49 -272 6 -86 42 -215 61 -215 6 0 24 24 39 54 32 61
127 159 206 212 30 21 257 154 505 296 967 557 1128 661 1326 857 307 305 468
650 510 1091 18 184 -3 391 -60 606 -16 61 -39 133 -50 158 -48 112 -11 108
55 -5 130 -221 186 -439 186 -724 0 -437 -129 -793 -406 -1123 -211 -253 -473
-440 -1135 -812 -91 -51 -266 -152 -390 -225 -124 -73 -272 -158 -329 -190
-208 -117 -268 -182 -317 -340 -15 -50 -18 -90 -17 -237 1 -98 -1 -178 -5
-178 -11 0 -228 369 -265 450 -79 174 -104 303 -87 434 31 223 147 392 345
500 382 210 1307 751 1421 832 203 144 362 355 443 587 36 104 75 287 63 299
-5 5 -43 -33 -86 -86 -151 -186 -300 -308 -581 -474 -168 -100 -1034 -603
-1365 -793 -237 -136 -306 -192 -353 -289 -47 -96 -60 -184 -52 -357 5 -130 4
-153 -8 -153 -14 0 -170 272 -275 480 -72 143 -86 206 -79 350 9 208 83 371
212 469 28 21 181 114 340 206 1200 695 1342 778 1404 822 137 98 236 225 294
376 30 78 31 89 32 227 0 138 -2 150 -33 243 -46 136 -44 144 46 188 40 20 89
52 109 70 50 48 85 123 87 184 l1 50 -320 7 c-352 8 -779 2 -893 -13 -82 -10
-149 -41 -214 -97 -25 -21 -58 -44 -74 -50 -16 -6 -157 -43 -313 -82 -156 -39
-292 -75 -302 -81 -14 -7 -19 -21 -19 -52 0 -23 -10 -67 -21 -97 -15 -37 -22
-78 -22 -125 0 -85 20 -131 99 -216 30 -32 54 -67 54 -76 0 -10 -10 -36 -22
-59 -35 -67 -24 -86 86 -140 116 -57 154 -59 255 -14 103 45 142 46 321 15
220 -38 360 -43 474 -16 185 44 304 137 383 299 25 50 49 92 53 92 15 0 18
-26 9 -83 -36 -225 -216 -394 -499 -468 -104 -27 -280 -29 -410 -5 -108 20
-239 21 -286 1 -19 -8 -55 -35 -80 -60 -34 -35 -49 -45 -65 -40 -11 4 -125 64
-252 134 -205 112 -232 130 -235 153 -2 15 4 38 13 51 44 68 39 119 -20 212
-65 101 -81 219 -46 336 30 100 32 120 17 183 -18 76 -9 102 41 116 21 5 184
46 362 90 178 45 333 86 345 92 11 6 43 29 70 50 56 44 121 80 181 98 69 21
242 27 866 28 585 2 608 1 630 -17z m2843 -57 c26 -26 28 -57 7 -115 -35 -94
-53 -191 -53 -289 0 -109 11 -167 48 -262 24 -59 25 -71 14 -98 -8 -18 -23
-33 -39 -38 -14 -4 -336 -7 -716 -7 -654 0 -693 1 -745 19 -120 42 -196 109
-251 222 -93 189 -11 440 176 537 90 46 82 46 832 46 634 1 713 -1 727 -15z
m0 -1009 c28 -28 27 -54 -3 -149 -59 -183 -59 -327 -1 -496 33 -95 32 -133 -1
-151 -12 -6 -274 -9 -741 -7 l-723 3 -50 23 c-80 36 -125 73 -172 135 -170
231 -63 556 212 643 31 10 206 13 752 13 621 1 713 -1 727 -14z"/>
<path d="M6872 11015 c-70 -22 -138 -83 -156 -142 l-7 -23 704 0 704 0 12 73
c7 39 15 80 17 90 5 16 -29 17 -613 16 -486 0 -627 -3 -661 -14z"/>
<path d="M6710 10677 c0 -36 73 -114 135 -143 l50 -24 626 0 626 0 -16 88 -16
87 -703 3 c-566 2 -702 0 -702 -11z"/>
<path d="M6869 10006 c-20 -7 -51 -23 -69 -36 -35 -25 -90 -96 -90 -117 0 -11
120 -13 704 -13 l703 0 12 63 c6 34 14 74 17 90 l6 27 -624 0 c-483 -1 -631
-4 -659 -14z"/>
<path d="M7248 9682 c-427 -2 -538 -5 -538 -15 0 -34 72 -112 132 -143 l47
-24 629 0 629 0 -15 88 c-8 48 -20 90 -26 95 -6 4 -81 6 -166 5 -85 -2 -397
-4 -692 -6z"/>
<path d="M6845 8986 c-62 -29 -135 -107 -135 -143 0 -10 139 -13 704 -13 l703
0 12 63 c6 34 14 74 17 90 l6 27 -629 0 -628 0 -50 -24z"/>
<path d="M6743 8673 l-43 -4 19 -37 c11 -20 37 -54 58 -74 73 -71 42 -68 743
-68 597 0 631 1 626 18 -2 9 -10 50 -17 90 l-12 72 -211 0 c-116 0 -416 2
-666 4 -250 2 -474 2 -497 -1z"/>
<path d="M1925 2879 c-22 -4 -105 -8 -185 -8 -134 -1 -143 -2 -122 -17 22 -15
22 -19 22 -254 l0 -239 -27 -20 -26 -21 198 2 199 3 13 50 c18 68 12 88 -12
47 -29 -48 -89 -74 -167 -70 l-63 3 0 110 0 110 59 3 c48 3 65 -1 88 -18 l28
-21 0 57 0 57 -23 -21 c-19 -18 -35 -22 -90 -22 l-67 0 0 115 0 115 81 0 c87
0 115 -9 129 -43 7 -17 9 -8 9 36 1 31 0 56 -1 56 -2 -1 -21 -5 -43 -10z"/>
<path d="M4257 2880 c-116 -20 -193 -88 -222 -195 -41 -148 20 -289 148 -346
100 -45 271 -27 358 37 33 24 34 27 39 107 4 73 7 83 28 93 20 10 5 12 -85 12
-59 1 -101 -2 -93 -5 29 -11 40 -37 40 -101 0 -59 -3 -67 -33 -97 -60 -60
-168 -56 -226 10 -84 96 -80 325 7 408 35 34 72 47 132 47 27 0 61 -5 77 -11
37 -14 82 -57 99 -94 13 -29 13 -28 14 36 l0 66 -38 11 c-37 11 -167 33 -187
31 -5 -1 -31 -5 -58 -9z"/>
<path d="M4641 2831 c0 -43 2 -51 9 -34 13 32 41 43 114 43 l66 0 0 -244 c0
-242 0 -245 -22 -260 -21 -15 -15 -16 82 -16 l104 0 -22 20 c-21 20 -22 27
-22 260 l0 240 73 0 c75 0 95 -9 110 -50 3 -8 6 10 6 41 l1 56 -47 -8 c-27 -4
-118 -8 -203 -8 -85 0 -176 4 -202 8 l-48 8 1 -56z"/>
<path d="M5430 2880 c-97 -17 -174 -69 -212 -144 -30 -57 -36 -176 -14 -244
44 -131 196 -203 364 -173 125 22 199 87 228 201 40 156 -32 299 -174 344 -63
20 -137 26 -192 16z m175 -70 c52 -50 70 -107 70 -220 0 -86 -3 -100 -30 -150
-58 -106 -171 -130 -255 -54 -52 48 -75 115 -74 220 0 70 5 91 30 140 41 83
80 107 161 102 55 -3 67 -8 98 -38z"/>
<path d="M6995 2879 c-157 -26 -245 -125 -245 -275 0 -39 7 -91 15 -115 18
-50 74 -112 125 -139 38 -19 133 -40 185 -40 60 0 138 30 175 69 34 35 35 38
32 101 l-4 65 -18 -59 c-24 -76 -67 -121 -132 -136 -100 -24 -183 16 -226 108
-22 47 -27 71 -27 142 0 109 31 180 97 223 39 26 50 28 113 25 85 -4 124 -27
160 -96 l24 -47 -4 70 -3 70 -49 16 c-63 21 -155 29 -218 18z"/>
<path d="M7586 2843 c-11 -26 -63 -147 -117 -268 -78 -176 -103 -224 -126
-237 l-28 -18 74 0 c73 0 74 0 56 20 -17 19 -17 22 7 77 l25 58 94 0 94 0 23
-58 c22 -56 22 -60 6 -78 -17 -19 -13 -19 161 -19 158 0 176 2 165 15 -11 13
-10 39 0 138 21 190 12 190 124 1 l100 -166 22 48 c41 93 161 286 167 270 3
-8 11 -72 18 -141 10 -98 10 -131 1 -146 -12 -18 -8 -19 90 -19 96 1 101 2 76
15 -31 17 -27 -3 -68 310 -17 126 -33 231 -35 233 -5 5 -10 -4 -135 -222 -52
-91 -99 -164 -104 -163 -5 2 -61 89 -125 195 -64 105 -119 192 -122 192 -3 0
-15 -80 -28 -177 -37 -298 -44 -337 -59 -355 -18 -21 -50 -23 -74 -5 -9 8 -60
108 -113 223 -53 115 -108 235 -123 267 l-27 58 -19 -48z m40 -270 l24 -63
-80 0 c-90 0 -86 -10 -40 95 12 28 27 61 32 75 l10 25 15 -35 c9 -19 26 -63
39 -97z"/>
<path d="M9993 2881 c-43 -11 -79 -35 -100 -68 -23 -34 -23 -121 -1 -155 9
-14 69 -60 132 -101 128 -84 141 -103 113 -163 -46 -96 -226 -52 -244 60 l-6
41 -13 -30 c-7 -16 -13 -47 -14 -67 0 -48 25 -66 113 -81 164 -28 286 62 262
192 -9 48 -33 73 -135 138 -146 94 -167 128 -114 178 21 20 38 25 76 25 60 0
83 -11 108 -53 l20 -32 0 58 0 57 -54 0 c-29 0 -66 2 -82 4 -16 3 -44 1 -61
-3z"/>
<path d="M1177 2848 c-8 -18 -38 -93 -68 -165 -30 -73 -57 -133 -60 -133 -3 0
-10 15 -16 33 -6 17 -27 77 -47 132 -38 107 -44 140 -23 148 6 3 -35 6 -93 6
-89 1 -101 -1 -81 -12 20 -10 42 -60 125 -282 95 -257 100 -268 108 -232 8 39
123 316 137 330 7 7 50 -79 137 -276 l39 -88 11 48 c12 51 114 380 140 449 8
23 25 46 37 52 18 9 11 11 -41 11 -58 1 -61 0 -51 -17 9 -15 3 -47 -28 -158
-21 -76 -43 -138 -48 -138 -6 1 -29 46 -53 100 -71 161 -101 224 -107 224 -2
0 -11 -15 -18 -32z"/>
<path d="M3398 2618 c3 -259 2 -263 -19 -280 -21 -17 -18 -18 81 -18 l103 0
-27 21 -26 20 0 166 0 165 85 -78 c46 -44 137 -129 202 -190 l118 -112 -3 260
c-3 234 -2 262 14 279 17 19 15 19 -71 19 -85 0 -88 -1 -71 -19 14 -16 16 -40
14 -180 l-3 -162 -130 124 c-174 165 -256 241 -264 245 -3 1 -5 -116 -3 -260z"/>
<path d="M5918 2624 l4 -253 -26 -26 -25 -25 102 0 c95 0 100 1 79 16 -21 15
-22 21 -22 180 0 90 4 164 9 164 5 0 14 -7 21 -15 7 -8 92 -91 189 -184 l176
-169 -3 258 c-4 251 -3 259 17 279 l21 21 -91 0 c-82 0 -89 -1 -75 -16 13 -13
16 -44 16 -181 l0 -165 -127 120 c-71 66 -139 132 -153 147 -14 15 -45 44 -70
65 l-45 38 3 -254z"/>
<path d="M2120 2850 c19 -19 20 -33 20 -250 l0 -231 -25 -25 -25 -24 197 2
196 3 18 75 c19 82 19 98 -1 50 -29 -70 -105 -106 -205 -98 l-40 3 -3 237 c-2
227 -1 239 18 258 l20 20 -95 0 -95 0 20 -20z"/>
<path d="M2603 2852 c15 -16 17 -49 17 -255 l0 -236 -27 -20 -26 -21 198 2
198 3 12 40 c6 23 15 56 19 75 l6 35 -27 -43 c-37 -56 -90 -82 -171 -82 l-62
0 0 250 c0 227 2 250 18 259 12 8 -8 10 -77 11 -91 0 -93 -1 -78 -18z"/>
<path d="M3084 2854 c14 -13 16 -51 16 -259 0 -241 0 -244 -22 -259 -21 -15
-15 -16 82 -16 l104 0 -22 20 c-21 20 -22 27 -22 257 0 206 2 239 17 255 15
17 13 18 -76 18 -84 0 -91 -1 -77 -16z"/>
<path d="M8730 2850 c19 -19 20 -33 20 -250 l0 -231 -25 -24 -24 -25 104 0
104 0 -24 25 -25 24 0 236 0 235 46 0 c56 0 79 -12 99 -50 39 -76 1 -170 -80
-198 l-30 -10 28 -11 c70 -27 154 -2 194 58 34 50 32 132 -3 179 -42 54 -73
62 -249 62 l-155 0 20 -20z"/>
<path d="M9238 2858 c6 -8 12 -93 14 -203 3 -174 5 -194 26 -232 29 -55 82
-90 157 -104 123 -23 227 11 273 89 27 46 27 50 30 242 2 115 8 200 14 207 8
10 -1 13 -43 13 -41 0 -50 -3 -41 -12 9 -9 12 -69 12 -208 0 -171 -2 -200 -19
-230 -26 -49 -73 -74 -138 -74 -64 0 -99 22 -130 84 -21 41 -23 57 -23 232 0
168 2 188 18 197 12 8 -7 10 -72 11 -70 0 -86 -3 -78 -12z"/>
</g>
</svg>
